<svg width="40" height="40" viewBox="0 0 40 40" fill="none" xmlns="http://www.w3.org/2000/svg">
<path fill-rule="evenodd" clip-rule="evenodd" d="M11.1866 6.6166C17.0504 6.09232 22.9494 6.09232 28.8133 6.6166L31.3433 6.84327C32.568 6.95263 33.7202 7.47173 34.6135 8.31669C35.5069 9.16166 36.0893 10.2831 36.2666 11.4999C37.0906 17.1366 37.0906 22.8632 36.2666 28.4999C36.0889 29.7164 35.5064 30.8375 34.6131 31.6822C33.7197 32.5268 32.5678 33.0456 31.3433 33.1549L28.8133 33.3816C22.9494 33.9059 17.0504 33.9059 11.1866 33.3816L8.65659 33.1549C7.43205 33.0456 6.2801 32.5268 5.38678 31.6822C4.49346 30.8375 3.91093 29.7164 3.73326 28.4999C2.90923 22.8632 2.90923 17.1366 3.73326 11.4999C3.91058 10.2831 4.49297 9.16166 5.38632 8.31669C6.27967 7.47173 7.43181 6.95263 8.65659 6.84327L11.1866 6.6166ZM9.75992 11.3999C9.56952 11.2972 9.35572 11.2457 9.13944 11.2504C8.92316 11.2551 8.71181 11.3159 8.52604 11.4267C8.34027 11.5376 8.18646 11.6948 8.07963 11.8829C7.9728 12.071 7.91662 12.2836 7.91659 12.4999V28.3333C7.91659 28.6648 8.04828 28.9827 8.28271 29.2171C8.51713 29.4516 8.83507 29.5833 9.16659 29.5833C9.49811 29.5833 9.81605 29.4516 10.0505 29.2171C10.2849 28.9827 10.4166 28.6648 10.4166 28.3333V14.5933L19.4066 19.4333C19.7766 19.6333 20.2233 19.6333 20.5933 19.4333L29.5833 14.5933V28.3333C29.5833 28.6648 29.715 28.9827 29.9494 29.2171C30.1838 29.4516 30.5017 29.5833 30.8333 29.5833C31.1648 29.5833 31.4827 29.4516 31.7171 29.2171C31.9516 28.9827 32.0833 28.6648 32.0833 28.3333V12.4999C32.0832 12.2836 32.027 12.071 31.9202 11.8829C31.8134 11.6948 31.6596 11.5376 31.4738 11.4267C31.288 11.3159 31.0767 11.2551 30.8604 11.2504C30.6441 11.2457 30.4303 11.2972 30.2399 11.3999L19.9999 16.9133L9.75992 11.3999Z" fill="white"/>
</svg>
